<svg width="120" height="120" viewBox="0 0 120 120" fill="none" xmlns="http://www.w3.org/2000/svg">
<rect x="3" y="3" width="114" height="114" rx="57" fill="#5300C8"/>
<rect x="3" y="3" width="114" height="114" rx="57" stroke="#1B0A33" stroke-width="6"/>
<g clip-path="url(#clip0_93_4)">
<rect x="40.1431" y="41.4292" width="12.1429" height="19.2857" fill="white"/>
<path d="M87.6818 43.6409C87.0144 42.9499 85.6714 43.4946 84.6051 43.397C84.5807 43.397 84.5318 43.397 84.5074 43.397C83.8644 43.4702 83.5633 43.2507 83.5877 42.5516C83.6365 41.6818 83.5633 40.7958 83.6121 39.926C83.6365 39.3326 83.4168 39.1538 82.8389 39.1863C81.9191 39.2107 80.9994 39.1619 80.0877 39.2107C79.5668 39.2351 79.3715 39.04 79.3959 38.5198C79.4203 37.6012 79.3959 36.6827 79.4203 35.7722C79.4447 35.2276 79.2494 35 78.6796 35C74.9355 35.0244 71.1833 35.0244 67.4636 35C66.845 35 66.7229 35.2439 66.7473 35.7966C66.7717 36.7152 66.7473 37.6337 66.7717 38.5441C66.7961 39.0644 66.6252 39.2595 66.0799 39.2351C65.2822 39.2107 64.4683 39.2595 63.6462 39.2107C62.8241 39.1619 62.4334 39.357 62.5067 40.2756C62.5799 41.0722 62.5067 41.8851 62.5311 42.7061C62.5555 43.2507 62.3846 43.5027 61.7904 43.4783C60.9195 43.4295 60.0323 43.4295 59.1614 43.4783C58.5428 43.5027 58.2905 43.3076 58.3393 42.6817C58.3881 41.8119 58.3393 40.9259 58.3637 40.0561C58.3881 39.4383 58.1684 39.2107 57.5416 39.2351C56.6219 39.2839 55.7021 39.2107 54.7905 39.2351C54.2696 39.2595 54.0743 39.0644 54.0743 38.5441C54.0987 37.6012 54.0743 36.6339 54.0987 35.6909C54.0987 35.2439 53.9522 35.0244 53.4801 35.0488C49.7116 35.0488 45.9105 35.0732 42.1419 35.0488C41.621 35.0488 41.4257 35.2195 41.4501 35.7397C41.4745 36.6095 41.4257 37.4955 41.4745 38.3653C41.4989 39.0075 41.328 39.3082 40.628 39.2595C39.8548 39.2107 39.0897 39.3082 38.3164 39.2351C37.5188 39.1619 37.1769 39.357 37.2502 40.2268C37.3234 40.999 37.2257 41.7631 37.2746 42.5354C37.3234 43.2263 37.1525 43.5515 36.3792 43.5027C35.606 43.4295 34.8409 43.5271 34.0677 43.4783C33.27 43.4295 32.977 43.6734 33.0014 44.5188C33.0502 46.9737 33.0258 49.4286 33.0258 51.8834C33.0258 53.8669 33.0258 55.8503 33.0258 57.8093C33.0258 60.3374 33.0258 60.3374 35.606 60.3374C37.2664 60.3374 37.2664 60.3374 37.242 62.02C37.242 64.5481 37.242 64.5481 39.7001 64.5481C40.0013 64.5481 40.2943 64.5725 40.571 64.5481C41.2629 64.4749 41.4419 64.7675 41.4419 65.4422C41.4419 66.5315 40.9454 68.0434 41.6617 68.5637C42.4024 69.1083 43.8431 68.7832 44.9907 68.71C45.5361 68.6612 45.6337 68.8319 45.6337 69.2546C45.6337 69.9943 45.6337 70.7178 45.6337 71.4575C45.6337 72.9939 45.6337 72.9938 47.1232 72.9938C49.8743 72.9938 49.8743 72.9939 49.8499 75.7739C49.8255 77.2371 49.6057 77.2371 51.2173 77.2371C54.0499 77.2371 54.0987 77.2615 54.0498 80.0903C54.0254 81.1795 54.294 81.5778 55.4417 81.4803C56.3859 81.3827 57.6475 81.0576 58.1928 81.651C58.6649 82.1468 58.4126 83.4068 58.3149 84.301C58.1928 85.4146 58.5347 85.8129 59.6823 85.6666C60.5776 85.5447 61.7904 85.943 62.3357 85.4959C62.9788 84.9513 62.5799 83.7076 62.5311 82.7728C62.4823 81.7323 62.7509 81.334 63.8741 81.4315C64.7694 81.5291 65.9578 81.7567 66.5275 81.3096C67.2194 80.765 66.8043 79.5213 66.7473 78.6108C66.6985 77.5216 67.024 77.1476 68.1391 77.2208C69.0345 77.294 70.1984 77.6435 70.7926 77.0745C71.3867 76.5055 70.9635 75.3431 70.9879 74.4489C71.0367 73.0101 71.0123 73.0101 72.5018 73.0345C72.9495 73.0345 73.3972 72.9857 73.8204 73.0589C74.8867 73.2052 75.2855 72.8638 75.2367 71.6932C75.1146 68.8157 75.1878 68.7669 78.118 68.8401C79.1843 68.8644 79.6075 68.645 79.4854 67.4744C79.3878 66.5803 79.0622 65.4178 79.6319 64.8244C80.2017 64.2067 81.3656 64.7025 82.261 64.6294C82.3586 64.6294 82.4807 64.605 82.5865 64.6294C83.5063 64.8001 83.6772 64.353 83.6528 63.5401C83.6284 62.5484 83.2296 61.3128 83.7993 60.6625C84.4423 59.9716 85.7365 60.443 86.7295 60.443C87.6248 60.443 87.9178 60.2236 87.8934 59.305C87.8446 55.1187 87.8934 50.9486 87.869 46.7623C87.8527 45.5999 88.276 44.2831 87.6818 43.6409ZM49.8336 46.8843C49.8581 47.4533 49.6139 47.6565 49.0604 47.624C48.2627 47.5996 47.4488 47.6484 46.6267 47.5996C45.8291 47.5508 45.5116 47.7947 45.5605 48.6401C45.6337 49.5586 45.5849 50.4772 45.5849 51.3876C45.5849 52.2574 45.5849 53.1434 45.5849 54.0132C45.5849 55.8503 45.5605 57.6793 45.5849 59.5164C45.5849 60.0854 45.4384 60.313 44.8442 60.2561C43.9245 60.2073 43.0047 60.2073 42.0931 60.2561C41.4745 60.2805 41.3768 60.0366 41.3768 59.4838C41.4012 55.7934 41.4012 52.0704 41.3768 48.3799C41.3768 47.7378 41.5722 47.5102 42.1989 47.5589C42.8908 47.6077 43.5907 47.5589 44.2826 47.6809C45.2268 47.8516 45.5768 47.437 45.6012 46.616C45.6256 45.7706 45.6256 44.9334 45.6012 44.088C45.5768 43.5433 45.7721 43.3482 46.293 43.397C46.3663 43.397 46.4395 43.397 46.5128 43.397C50.7778 43.5433 49.679 42.5272 49.8336 46.8843Z" fill="#E53935"/>
<path fill-rule="evenodd" clip-rule="evenodd" d="M77.4742 35.007C74.1307 35.0241 70.7841 35.0218 67.4636 35C66.845 35 66.7229 35.2439 66.7473 35.7966C66.7588 36.2311 66.7595 36.6655 66.7595 37.0991C67.2576 37.1094 67.757 37.1189 68.2564 37.0924C68.8831 37.068 69.1029 37.2956 69.0784 37.9134C69.068 38.2861 69.071 38.6617 69.074 39.0378C69.0779 39.5395 69.0819 40.0419 69.054 40.539C69.0052 41.1649 69.2575 41.36 69.8761 41.3356C70.747 41.2868 71.6342 41.2868 72.5051 41.3356C73.0993 41.36 73.2702 41.108 73.2458 40.5634C73.236 40.2343 73.2419 39.9065 73.2478 39.5805C73.2566 39.0933 73.2653 38.6102 73.2214 38.1329C73.1481 37.2143 73.5388 37.0192 74.3609 37.068C74.8312 37.0959 75.2988 37.0919 75.7623 37.0879C76.1089 37.0849 76.4532 37.082 76.7946 37.0924C77.3399 37.1168 77.5108 36.9217 77.4864 36.4015C77.4742 35.9462 77.4742 35.489 77.4742 35.0307C77.4742 35.0228 77.4742 35.0149 77.4742 35.007ZM58.3599 41.2698C58.3636 41.7418 58.3656 42.2141 58.3393 42.6817C58.2905 43.3076 58.5428 43.5027 59.1614 43.4783C59.6163 43.4528 60.0756 43.4407 60.5347 43.4418C60.5294 43.8106 60.5306 44.2406 60.5484 44.7416C60.5728 45.3106 60.3286 45.5138 59.7751 45.4813C59.4338 45.4708 59.0895 45.4738 58.7428 45.4768C58.2794 45.4808 57.8117 45.4848 57.3414 45.4569C56.5438 45.4081 56.2264 45.652 56.2752 46.4974C56.3276 47.154 56.3175 47.8105 56.3076 48.4642C56.3036 48.7249 56.2996 48.9853 56.2996 49.2449V51.8705C56.2996 52.4832 56.2969 53.0949 56.2942 53.7064C56.2888 54.9284 56.2833 56.1492 56.2996 57.3737C56.2996 57.9427 56.1531 58.1703 55.5589 58.1134C54.6392 58.0646 53.7194 58.0646 52.8078 58.1134C52.1892 58.1378 52.0915 57.8939 52.0915 57.3412C52.116 53.6507 52.116 49.9277 52.0915 46.2373C52.0915 45.5951 52.2869 45.3675 52.9136 45.4163C53.1653 45.434 53.4181 45.4388 53.6711 45.4437C54.1137 45.4521 54.5571 45.4606 54.9973 45.5382C55.9415 45.7089 56.2915 45.2943 56.3159 44.4733C56.3403 43.6279 56.3403 42.7907 56.3159 41.9453C56.2915 41.4006 56.4868 41.2056 57.0077 41.2543H57.2275C57.6572 41.2691 58.0324 41.272 58.3599 41.2698ZM52.167 35.0496C51.3479 35.0507 50.5276 35.0524 49.7067 35.0542C47.1835 35.0596 44.6555 35.065 42.1419 35.0488C41.621 35.0488 41.4257 35.2195 41.4501 35.7397C41.4605 36.1124 41.4576 36.488 41.4546 36.8641C41.4506 37.3658 41.4466 37.8682 41.4745 38.3653C41.4989 39.0075 41.328 39.3082 40.628 39.2595C40.2711 39.237 39.9159 39.2456 39.5609 39.2543C39.1467 39.2644 38.7327 39.2745 38.3164 39.2351C37.5188 39.1619 37.1769 39.357 37.2502 40.2268C37.2896 40.6426 37.2795 41.056 37.2694 41.4696C37.2607 41.8242 37.252 42.1789 37.2746 42.5354C37.3234 43.2263 37.1525 43.5515 36.3792 43.5027C35.9629 43.4633 35.549 43.4734 35.1348 43.4835C34.7798 43.4922 34.4246 43.5008 34.0677 43.4783C33.27 43.4295 32.977 43.6734 33.0014 44.5188C33.038 46.3599 33.0334 48.2011 33.0289 50.0423C33.0273 50.656 33.0258 51.2697 33.0258 51.8834V57.8093C33.0258 60.3374 33.0258 60.3374 35.606 60.3374C37.2664 60.3374 37.2664 60.3374 37.242 62.02C37.242 64.5481 37.242 64.5481 39.7001 64.5481C39.8017 64.5481 39.9024 64.5508 40.0019 64.5536C40.1972 64.559 40.3877 64.5642 40.571 64.5481C41.2629 64.4749 41.4419 64.7675 41.4419 65.4422C41.4419 65.7576 41.4003 66.1085 41.3585 66.4604C41.2561 67.3239 41.1528 68.1941 41.6617 68.5637C42.2414 68.9899 43.2498 68.8834 44.211 68.7819C44.4779 68.7537 44.7412 68.7259 44.9907 68.71C45.5361 68.6612 45.6337 68.8319 45.6337 69.2546V71.4575C45.6337 72.2336 45.6337 72.6177 45.8257 72.8077C46.0138 72.9939 46.3862 72.9939 47.1232 72.9939C48.494 72.9939 49.1818 72.9939 49.5238 73.3377C49.8683 73.684 49.8622 74.379 49.8499 75.7739C49.8375 76.5191 49.7744 76.8847 49.9283 77.0642C50.0767 77.2371 50.4265 77.2371 51.2173 77.2371C54.0499 77.2371 54.0987 77.2615 54.0499 80.0903C54.0254 81.1795 54.294 81.5778 55.4417 81.4803C55.6145 81.4624 55.798 81.4369 55.9857 81.4109C56.8237 81.2945 57.7473 81.1662 58.1928 81.651C58.5954 82.0739 58.4711 83.0527 58.3652 83.8863C58.347 84.03 58.3293 84.1694 58.3149 84.301C58.1928 85.4146 58.5347 85.8129 59.6823 85.6666C60.0265 85.6197 60.4175 85.6497 60.7995 85.679C61.4114 85.726 62 85.7711 62.3357 85.4959C62.8208 85.085 62.713 84.2763 62.6098 83.5024C62.5762 83.2505 62.5431 83.0023 62.5311 82.7728C62.4823 81.7323 62.7509 81.334 63.8741 81.4315C63.9956 81.4448 64.1225 81.4604 64.2525 81.4764C65.0805 81.5784 66.0351 81.696 66.5275 81.3096C67.0563 80.8933 66.9384 80.0686 66.8281 79.2965C66.8259 79.2815 66.8238 79.2664 66.8216 79.2514C66.7811 79.257 66.7407 79.2626 66.7004 79.2682C66.5127 79.2943 66.3292 79.3197 66.1564 79.3376C65.0088 79.4351 64.7401 79.0368 64.7646 77.9476C64.8134 75.1188 64.7646 75.0944 61.9321 75.0944C61.1412 75.0944 60.7914 75.0944 60.6431 74.9215C60.4891 74.7421 60.5522 74.3764 60.5646 73.6312C60.5769 72.2363 60.583 71.5413 60.2385 71.195C59.8965 70.8512 59.2087 70.8512 57.838 70.8512C57.1009 70.8512 56.7285 70.8512 56.5405 70.665C56.3484 70.475 56.3484 70.0909 56.3484 69.3148V67.1119C56.3484 66.6892 56.2508 66.5185 55.7054 66.5673C55.456 66.5832 55.1927 66.611 54.9257 66.6392C53.9645 66.7407 52.9561 66.8472 52.3764 66.421C51.8676 66.0514 51.9708 65.1813 52.0733 64.3178C52.115 63.9658 52.1567 63.6149 52.1567 63.2995C52.1567 62.6249 51.9776 62.3322 51.2857 62.4054C51.1024 62.4215 50.9119 62.4163 50.7166 62.4109C50.6171 62.4082 50.5165 62.4054 50.4148 62.4054C47.9567 62.4054 47.9567 62.4054 47.9567 59.8773C47.9812 58.1947 47.9812 58.1947 46.3207 58.1947C46.0433 58.1947 45.7957 58.1947 45.5747 58.1915C45.576 58.6328 45.579 59.0744 45.5849 59.5164C45.5849 60.0854 45.4384 60.313 44.8442 60.2561C43.9245 60.2073 43.0047 60.2073 42.0931 60.2561C41.4745 60.2805 41.3768 60.0366 41.3768 59.4838C41.4012 55.7934 41.4012 52.0704 41.3768 48.3799C41.3768 47.7378 41.5722 47.5102 42.1989 47.5589C42.4506 47.5767 42.7034 47.5815 42.9564 47.5864C43.219 47.5914 43.4819 47.5964 43.7443 47.6159C43.7485 45.8693 43.7509 44.1227 43.7161 42.3761C43.6917 41.5307 43.9847 41.2868 44.7824 41.3356C45.1393 41.3581 45.4945 41.3495 45.8495 41.3408C46.2637 41.3307 46.6776 41.3206 47.094 41.36C47.8672 41.4088 48.0381 41.0836 47.9893 40.3927C47.9668 40.0362 47.9754 39.6815 47.9841 39.3269C47.9942 38.9133 48.0043 38.4999 47.9649 38.0841C47.8916 37.2143 48.2335 37.0192 49.0311 37.0924C49.4475 37.1318 49.8614 37.1217 50.2756 37.1116C50.6306 37.1029 50.9858 37.0943 51.3427 37.1168C52.0427 37.1656 52.2136 36.8648 52.1892 36.2226C52.1674 35.8339 52.1651 35.4419 52.167 35.0496Z" fill="#B6201C"/>
</g>
<defs>
<clipPath id="clip0_93_4">
<rect width="55" height="50.7143" fill="white" transform="translate(33 35)"/>
</clipPath>
</defs>
</svg>
