<svg width="90" height="26" viewBox="0 0 90 26" fill="none" xmlns="http://www.w3.org/2000/svg">
<g clip-path="url(#clip0_91_23)">
<rect x="3.58569" y="3.76904" width="6.09562" height="9.68128" fill="white"/>
<path d="M27.4498 4.8794C27.1148 4.53255 26.4406 4.80595 25.9054 4.75698C25.8931 4.75698 25.8686 4.75698 25.8563 4.75698C25.5335 4.79371 25.3824 4.68353 25.3946 4.3326C25.4191 3.89598 25.3824 3.4512 25.4069 3.01458C25.4191 2.7167 25.3088 2.62692 25.0187 2.64324C24.557 2.65549 24.0953 2.631 23.6377 2.65549C23.3762 2.66773 23.2781 2.56979 23.2904 2.30864C23.3026 1.84753 23.2904 1.38643 23.3026 0.929403C23.3149 0.656004 23.2168 0.541748 22.9308 0.541748C21.0513 0.55399 19.1677 0.55399 17.3004 0.541748C16.9899 0.541748 16.9286 0.664165 16.9409 0.941645C16.9531 1.40275 16.9409 1.86385 16.9531 2.32088C16.9654 2.58204 16.8796 2.67997 16.6058 2.66773C16.2054 2.65549 15.7968 2.67997 15.3841 2.65549C14.9715 2.631 14.7753 2.72894 14.8121 3.19004C14.8489 3.58994 14.8121 3.998 14.8244 4.41013C14.8366 4.68353 14.7508 4.81003 14.4526 4.79779C14.0154 4.77331 13.57 4.77331 13.1328 4.79779C12.8223 4.81003 12.6956 4.7121 12.7201 4.39789C12.7446 3.96127 12.7201 3.51649 12.7324 3.07987C12.7446 2.76974 12.6343 2.65549 12.3197 2.66773C11.858 2.69221 11.3963 2.65549 10.9387 2.66773C10.6772 2.67997 10.5791 2.58204 10.5791 2.32088C10.5914 1.84753 10.5791 1.36194 10.5914 0.888597C10.5914 0.664165 10.5178 0.55399 10.2808 0.566232C8.38907 0.566232 6.48095 0.578473 4.58918 0.566232C4.32768 0.566232 4.22962 0.651924 4.24187 0.913081C4.25413 1.3497 4.22962 1.79449 4.25413 2.23111C4.26639 2.55347 4.18058 2.70445 3.8292 2.67997C3.44104 2.65549 3.05696 2.70445 2.6688 2.66773C2.26838 2.631 2.09677 2.72894 2.13355 3.16556C2.17032 3.55321 2.12129 3.93679 2.1458 4.32444C2.17032 4.67129 2.08451 4.83451 1.69635 4.81003C1.30819 4.77331 0.924117 4.82227 0.535956 4.79779C0.135537 4.77331 -0.0115558 4.89572 0.000701919 5.3201C0.0252174 6.55244 0.0129595 7.78477 0.0129595 9.0171C0.0129595 10.0128 0.0129595 11.0084 0.0129595 11.9918C0.0129595 13.2609 0.0129595 13.2609 1.30819 13.2609C2.14172 13.2609 2.14172 13.2609 2.12946 14.1056C2.12946 15.3746 2.12946 15.3746 3.3634 15.3746C3.51458 15.3746 3.66167 15.3869 3.8006 15.3746C4.1479 15.3379 4.23779 15.4848 4.23779 15.8235C4.23779 16.3703 3.98855 17.1293 4.34811 17.3904C4.71992 17.6638 5.44313 17.5006 6.01924 17.4639C6.293 17.4394 6.34203 17.5251 6.34203 17.7373C6.34203 18.1086 6.34203 18.4718 6.34203 18.8431C6.34203 19.6144 6.34203 19.6144 7.08975 19.6144C8.47079 19.6144 8.47079 19.6144 8.45853 21.0099C8.44627 21.7444 8.33595 21.7444 9.14496 21.7444C10.5669 21.7444 10.5914 21.7567 10.5669 23.1767C10.5546 23.7235 10.6894 23.9234 11.2655 23.8745C11.7395 23.8255 12.3728 23.6623 12.6466 23.9602C12.8836 24.2091 12.7569 24.8416 12.7079 25.2904C12.6466 25.8495 12.8182 26.0494 13.3943 25.976C13.8438 25.9148 14.4526 26.1147 14.7263 25.8903C15.0491 25.6169 14.8489 24.9926 14.8244 24.5233C14.7999 24.001 14.9347 23.801 15.4985 23.85C15.948 23.899 16.5445 24.0132 16.8306 23.7888C17.1779 23.5154 16.9695 22.8911 16.9409 22.434C16.9164 21.8872 17.0798 21.6995 17.6396 21.7363C18.089 21.773 18.6733 21.9484 18.9716 21.6628C19.2698 21.3772 19.0574 20.7936 19.0696 20.3448C19.0941 19.6225 19.0819 19.6225 19.8296 19.6348C20.0543 19.6348 20.2791 19.6103 20.4915 19.647C21.0268 19.7205 21.227 19.5491 21.2025 18.9615C21.1412 17.5169 21.178 17.4925 22.6489 17.5292C23.1841 17.5414 23.3966 17.4313 23.3353 16.8436C23.2863 16.3948 23.1228 15.8113 23.4089 15.5134C23.6949 15.2033 24.2792 15.4522 24.7286 15.4154C24.7776 15.4154 24.8389 15.4032 24.892 15.4154C25.3538 15.5011 25.4396 15.2767 25.4273 14.8686C25.415 14.3708 25.2148 13.7506 25.5008 13.4241C25.8236 13.0773 26.4733 13.314 26.9718 13.314C27.4212 13.314 27.5683 13.2038 27.5561 12.7427C27.5315 10.6412 27.5561 8.54784 27.5438 6.44634C27.5356 5.86282 27.7481 5.20177 27.4498 4.8794ZM8.45036 6.50755C8.46262 6.79319 8.34004 6.8952 8.0622 6.87888C7.66178 6.86664 7.25319 6.89112 6.84051 6.86664C6.44009 6.84216 6.28074 6.96457 6.30526 7.38895C6.34203 7.85006 6.31751 8.31116 6.31751 8.76819C6.31751 9.20481 6.31751 9.64959 6.31751 10.0862C6.31751 11.0084 6.30526 11.9266 6.31751 12.8488C6.31751 13.1344 6.24397 13.2487 5.9457 13.2201C5.48399 13.1956 5.02228 13.1956 4.56466 13.2201C4.25413 13.2323 4.2051 13.1099 4.2051 12.8324C4.21736 10.9799 4.21736 9.11096 4.2051 7.25838C4.2051 6.93601 4.30316 6.82175 4.61778 6.84624C4.96508 6.87072 5.31647 6.84624 5.66377 6.90745C6.13773 6.99314 6.31343 6.78503 6.32569 6.37289C6.33794 5.94851 6.33794 5.52821 6.32569 5.10383C6.31343 4.83043 6.41149 4.7325 6.67299 4.75698C6.70976 4.75698 6.74653 4.75698 6.78331 4.75698C8.92432 4.83043 8.37273 4.32036 8.45036 6.50755Z" fill="#E53935"/>
<path fill-rule="evenodd" clip-rule="evenodd" d="M22.3255 0.545267C20.6471 0.553849 18.9673 0.552676 17.3004 0.541748C16.9899 0.541748 16.9286 0.664165 16.9409 0.941645C16.9467 1.15974 16.947 1.37784 16.947 1.5955C17.197 1.60066 17.4476 1.60541 17.6982 1.59212C18.0128 1.57987 18.1231 1.69413 18.1109 2.00425C18.1056 2.19133 18.1071 2.37991 18.1086 2.5687C18.1106 2.82053 18.1126 3.07274 18.0986 3.32228C18.0741 3.63648 18.2008 3.73442 18.5113 3.72218C18.9485 3.69769 19.3938 3.69769 19.831 3.72218C20.1293 3.73442 20.2151 3.60792 20.2029 3.33452C20.1979 3.16932 20.2009 3.00478 20.2039 2.84116C20.2083 2.59657 20.2126 2.35404 20.1906 2.11443C20.1538 1.65332 20.3499 1.55539 20.7626 1.57987C20.9987 1.59388 21.2334 1.59186 21.4661 1.58986C21.6401 1.58836 21.813 1.58688 21.9843 1.59212C22.2581 1.60436 22.3439 1.50642 22.3316 1.24527C22.3255 1.01676 22.3255 0.78724 22.3255 0.557206C22.3255 0.553227 22.3255 0.549247 22.3255 0.545267ZM12.7305 3.68916C12.7323 3.92607 12.7333 4.16316 12.7201 4.39789C12.6956 4.7121 12.8223 4.81003 13.1328 4.79779C13.3611 4.78501 13.5916 4.7789 13.822 4.77946C13.8193 4.96462 13.8199 5.18045 13.8288 5.43194C13.8411 5.71758 13.7185 5.81959 13.4407 5.80327C13.2693 5.79803 13.0965 5.79952 12.9225 5.80101C12.6898 5.80302 12.4551 5.80503 12.219 5.79103C11.8186 5.76654 11.6592 5.88896 11.6837 6.31334C11.71 6.64294 11.705 6.97254 11.7 7.30065C11.698 7.43156 11.696 7.56223 11.696 7.69258V9.0106C11.696 9.31816 11.6946 9.62526 11.6933 9.93221C11.6905 10.5457 11.6878 11.1585 11.696 11.7732C11.696 12.0588 11.6224 12.173 11.3242 12.1445C10.8625 12.12 10.4008 12.12 9.94314 12.1445C9.63261 12.1567 9.58358 12.0343 9.58358 11.7568C9.59584 9.90425 9.59584 8.03534 9.58358 6.18276C9.58358 5.8604 9.68164 5.74614 9.99626 5.77063C10.1226 5.77953 10.2495 5.78196 10.3765 5.78439C10.5987 5.78864 10.8213 5.79289 11.0423 5.83183C11.5162 5.91753 11.6919 5.70942 11.7042 5.29728C11.7164 4.8729 11.7164 4.4526 11.7042 4.02822C11.6919 3.75482 11.79 3.65689 12.0515 3.68137H12.1618C12.3776 3.68877 12.566 3.69025 12.7305 3.68916ZM9.62146 0.566669C9.21034 0.567178 8.79862 0.568063 8.38665 0.568948C7.12002 0.57167 5.85096 0.574397 4.58918 0.566232C4.32768 0.566232 4.22962 0.651924 4.24187 0.913081C4.24713 1.10016 4.24563 1.28873 4.24413 1.47752C4.24212 1.72935 4.24012 1.98156 4.25413 2.23111C4.26639 2.55347 4.18058 2.70445 3.8292 2.67997C3.65003 2.66867 3.47173 2.67302 3.2935 2.67736C3.0856 2.68243 2.87779 2.6875 2.6688 2.66773C2.26838 2.631 2.09677 2.72894 2.13355 3.16556C2.15334 3.37428 2.14827 3.58181 2.14319 3.78944C2.13884 3.96744 2.13449 4.14551 2.1458 4.32444C2.17032 4.67129 2.08451 4.83451 1.69635 4.81003C1.48736 4.79026 1.27956 4.79533 1.07166 4.8004C0.893426 4.80474 0.715126 4.80909 0.535956 4.79779C0.135537 4.77331 -0.0115558 4.89572 0.000701919 5.3201C0.0190885 6.24435 0.0167901 7.1686 0.0144917 8.09285C0.0137256 8.40093 0.0129595 8.70902 0.0129595 9.0171V11.9918C0.0129595 13.2609 0.0129596 13.2609 1.30819 13.2609C2.14172 13.2609 2.14172 13.2609 2.12946 14.1056C2.12946 15.3746 2.12946 15.3746 3.3634 15.3746C3.41442 15.3746 3.46496 15.376 3.51489 15.3774C3.61292 15.3801 3.70855 15.3828 3.8006 15.3746C4.1479 15.3379 4.23779 15.4848 4.23779 15.8235C4.23779 15.9818 4.21689 16.158 4.19593 16.3346C4.14449 16.7681 4.09266 17.2049 4.34811 17.3904C4.6391 17.6044 5.14532 17.551 5.62782 17.5C5.76183 17.4858 5.89401 17.4719 6.01924 17.4639C6.293 17.4394 6.34203 17.5251 6.34203 17.7373V18.8431C6.34203 19.2327 6.34203 19.4255 6.43842 19.5209C6.53284 19.6144 6.71975 19.6144 7.08975 19.6144C8.47079 19.6144 8.47079 19.6144 8.45853 21.0099C8.45229 21.384 8.42061 21.5676 8.49789 21.6576C8.57236 21.7444 8.74798 21.7444 9.14496 21.7444C10.5669 21.7444 10.5914 21.7567 10.5669 23.1767C10.5546 23.7235 10.6894 23.9234 11.2655 23.8745C11.3523 23.8655 11.4444 23.8527 11.5387 23.8396C11.9593 23.7812 12.4229 23.7168 12.6466 23.9602C12.8487 24.1725 12.7863 24.6638 12.7331 25.0823C12.724 25.1544 12.7151 25.2244 12.7079 25.2904C12.6466 25.8495 12.8182 26.0494 13.3943 25.976C13.5671 25.9524 13.7634 25.9675 13.9551 25.9822C14.2623 26.0058 14.5578 26.0284 14.7263 25.8903C14.9698 25.684 14.9157 25.278 14.8639 24.8896C14.847 24.7631 14.8304 24.6385 14.8244 24.5233C14.7999 24.001 14.9347 23.801 15.4985 23.85C15.5595 23.8566 15.6232 23.8645 15.6885 23.8725C16.1042 23.9237 16.5834 23.9828 16.8306 23.7888C17.096 23.5798 17.0368 23.1658 16.9814 22.7782C16.9803 22.7707 16.9793 22.7631 16.9782 22.7556C16.9578 22.7584 16.9374 22.7612 16.9171 22.764C16.8229 22.7771 16.7308 22.7899 16.644 22.7989C16.0679 22.8478 15.9331 22.6479 15.9453 22.1011C15.9699 20.681 15.9453 20.6688 14.5234 20.6688C14.1265 20.6688 13.9508 20.6688 13.8764 20.582C13.7991 20.4919 13.8308 20.3084 13.837 19.9343C13.8493 18.5387 13.8493 18.5387 12.4682 18.5387C12.0982 18.5387 11.9113 18.5387 11.8169 18.4453C11.7205 18.3499 11.7205 18.1571 11.7205 17.7675V16.6617C11.7205 16.4495 11.6715 16.3638 11.3977 16.3883C11.2725 16.3963 11.1403 16.4102 11.0063 16.4244C10.5238 16.4753 10.0176 16.5288 9.72659 16.3148C9.47114 16.1293 9.52297 15.6925 9.57441 15.259C9.59537 15.0823 9.61627 14.9062 9.61627 14.7479C9.61627 14.4092 9.52638 14.2623 9.17908 14.299C9.08703 14.3071 8.9914 14.3045 8.89337 14.3018C8.84345 14.3004 8.7929 14.299 8.74189 14.299C7.50794 14.299 7.50794 14.299 7.50794 13.03C7.5202 12.1853 7.5202 12.1853 6.68667 12.1853C6.5475 12.1853 6.42328 12.1853 6.31241 12.1837C6.31304 12.4052 6.31456 12.6269 6.31751 12.8488C6.31751 13.1344 6.24397 13.2487 5.9457 13.2201C5.48399 13.1956 5.02228 13.1956 4.56466 13.2201C4.25413 13.2323 4.2051 13.1099 4.2051 12.8324C4.21736 10.9799 4.21736 9.11096 4.2051 7.25838C4.2051 6.93601 4.30316 6.82176 4.61778 6.84624C4.74412 6.85515 4.87101 6.85757 4.99805 6.86C5.12979 6.86252 5.2617 6.86504 5.39333 6.8748C5.39545 5.99803 5.39663 5.12126 5.37918 4.24449C5.36693 3.82011 5.51402 3.69769 5.91444 3.72218C6.09361 3.73348 6.27191 3.72913 6.45014 3.72478C6.65804 3.71971 6.86584 3.71464 7.07484 3.73442C7.463 3.7589 7.5488 3.59568 7.52429 3.24883C7.51297 3.06989 7.51732 2.89182 7.52167 2.71382C7.52675 2.5062 7.53183 2.29866 7.51203 2.08995C7.47525 1.65332 7.64686 1.55539 8.04728 1.59212C8.25627 1.61189 8.46408 1.60682 8.67198 1.60175C8.85021 1.5974 9.02851 1.59306 9.20768 1.60436C9.55907 1.62884 9.64487 1.47786 9.63261 1.15549C9.62166 0.960364 9.62049 0.763603 9.62146 0.566669Z" fill="#B6201C"/>
</g>
<g clip-path="url(#clip1_91_23)">
<rect x="34.7808" y="3.76904" width="6.09562" height="9.68128" fill="white"/>
<path d="M58.6451 4.8794C58.3101 4.53255 57.6359 4.80595 57.1007 4.75698C57.0884 4.75698 57.0639 4.75698 57.0516 4.75698C56.7288 4.79371 56.5777 4.68353 56.5899 4.3326C56.6144 3.89598 56.5777 3.4512 56.6022 3.01458C56.6144 2.7167 56.5041 2.62692 56.214 2.64324C55.7523 2.65549 55.2906 2.631 54.833 2.65549C54.5715 2.66773 54.4734 2.56979 54.4857 2.30864C54.4979 1.84753 54.4857 1.38643 54.4979 0.929403C54.5102 0.656004 54.4121 0.541748 54.1261 0.541748C52.2466 0.55399 50.363 0.55399 48.4957 0.541748C48.1852 0.541748 48.1239 0.664165 48.1362 0.941645C48.1484 1.40275 48.1362 1.86385 48.1484 2.32088C48.1607 2.58204 48.0749 2.67997 47.8011 2.66773C47.4007 2.65549 46.9921 2.67997 46.5795 2.65549C46.1668 2.631 45.9707 2.72894 46.0074 3.19004C46.0442 3.58994 46.0074 3.998 46.0197 4.41013C46.0319 4.68353 45.9461 4.81003 45.6479 4.79779C45.2107 4.77331 44.7653 4.77331 44.3281 4.79779C44.0176 4.81003 43.8909 4.7121 43.9154 4.39789C43.94 3.96127 43.9154 3.51649 43.9277 3.07987C43.94 2.76974 43.8296 2.65549 43.515 2.66773C43.0533 2.69221 42.5916 2.65549 42.134 2.66773C41.8725 2.67997 41.7744 2.58204 41.7744 2.32088C41.7867 1.84753 41.7744 1.36194 41.7867 0.888597C41.7867 0.664165 41.7131 0.55399 41.4762 0.566232C39.5844 0.566232 37.6763 0.578473 35.7845 0.566232C35.523 0.566232 35.4249 0.651924 35.4372 0.913081C35.4494 1.3497 35.4249 1.79449 35.4494 2.23111C35.4617 2.55347 35.3759 2.70445 35.0245 2.67997C34.6363 2.65549 34.2523 2.70445 33.8641 2.66773C33.4637 2.631 33.2921 2.72894 33.3289 3.16556C33.3656 3.55321 33.3166 3.93679 33.3411 4.32444C33.3656 4.67129 33.2798 4.83451 32.8917 4.81003C32.5035 4.77331 32.1194 4.82227 31.7313 4.79779C31.3308 4.77331 31.1838 4.89572 31.196 5.3201C31.2205 6.55244 31.2083 7.78477 31.2083 9.0171C31.2083 10.0128 31.2083 11.0084 31.2083 11.9918C31.2083 13.2609 31.2083 13.2609 32.5035 13.2609C33.337 13.2609 33.337 13.2609 33.3248 14.1056C33.3248 15.3746 33.3248 15.3746 34.5587 15.3746C34.7099 15.3746 34.857 15.3869 34.9959 15.3746C35.3432 15.3379 35.4331 15.4848 35.4331 15.8235C35.4331 16.3703 35.1839 17.1293 35.5434 17.3904C35.9152 17.6638 36.6384 17.5006 37.2146 17.4639C37.4883 17.4394 37.5373 17.5251 37.5373 17.7373C37.5373 18.1086 37.5373 18.4718 37.5373 18.8431C37.5373 19.6144 37.5373 19.6144 38.2851 19.6144C39.6661 19.6144 39.6661 19.6144 39.6538 21.0099C39.6416 21.7444 39.5313 21.7444 40.3403 21.7444C41.7622 21.7444 41.7867 21.7567 41.7622 23.1767C41.7499 23.7235 41.8847 23.9234 42.4609 23.8745C42.9348 23.8255 43.5681 23.6623 43.8419 23.9602C44.0789 24.2091 43.9522 24.8416 43.9032 25.2904C43.8419 25.8495 44.0135 26.0494 44.5896 25.976C45.0391 25.9148 45.6479 26.1147 45.9216 25.8903C46.2444 25.6169 46.0442 24.9926 46.0197 24.5233C45.9952 24.001 46.13 23.801 46.6939 23.85C47.1433 23.899 47.7399 24.0132 48.0259 23.7888C48.3732 23.5154 48.1648 22.8911 48.1362 22.434C48.1117 21.8872 48.2751 21.6995 48.8349 21.7363C49.2843 21.773 49.8686 21.9484 50.1669 21.6628C50.4652 21.3772 50.2527 20.7936 50.2649 20.3448C50.2895 19.6225 50.2772 19.6225 51.0249 19.6348C51.2496 19.6348 51.4744 19.6103 51.6868 19.647C52.2221 19.7205 52.4223 19.5491 52.3978 18.9615C52.3365 17.5169 52.3733 17.4925 53.8442 17.5292C54.3794 17.5414 54.5919 17.4313 54.5306 16.8436C54.4816 16.3948 54.3182 15.8113 54.6042 15.5134C54.8902 15.2033 55.4745 15.4522 55.9239 15.4154C55.973 15.4154 56.0342 15.4032 56.0874 15.4154C56.5491 15.5011 56.6349 15.2767 56.6226 14.8686C56.6104 14.3708 56.4101 13.7506 56.6962 13.4241C57.0189 13.0773 57.6686 13.314 58.1671 13.314C58.6165 13.314 58.7636 13.2038 58.7514 12.7427C58.7269 10.6412 58.7514 8.54784 58.7391 6.44634C58.7309 5.86282 58.9434 5.20177 58.6451 4.8794ZM39.6457 6.50755C39.6579 6.79319 39.5354 6.8952 39.2575 6.87888C38.8571 6.86664 38.4485 6.89112 38.0358 6.86664C37.6354 6.84216 37.4761 6.96457 37.5006 7.38895C37.5373 7.85006 37.5128 8.31116 37.5128 8.76819C37.5128 9.20481 37.5128 9.64959 37.5128 10.0862C37.5128 11.0084 37.5006 11.9266 37.5128 12.8488C37.5128 13.1344 37.4393 13.2487 37.141 13.2201C36.6793 13.1956 36.2176 13.1956 35.76 13.2201C35.4494 13.2323 35.4004 13.1099 35.4004 12.8324C35.4127 10.9799 35.4127 9.11096 35.4004 7.25838C35.4004 6.93601 35.4985 6.82175 35.8131 6.84624C36.1604 6.87072 36.5118 6.84624 36.8591 6.90745C37.333 6.99314 37.5087 6.78503 37.521 6.37289C37.5333 5.94851 37.5333 5.52821 37.521 5.10383C37.5087 4.83043 37.6068 4.7325 37.8683 4.75698C37.9051 4.75698 37.9418 4.75698 37.9786 4.75698C40.1196 4.83043 39.568 4.32036 39.6457 6.50755Z" fill="#E53935"/>
<path fill-rule="evenodd" clip-rule="evenodd" d="M53.5207 0.545267C51.8424 0.553849 50.1626 0.552676 48.4957 0.541748C48.1852 0.541748 48.1239 0.664165 48.1362 0.941645C48.142 1.15974 48.1423 1.37784 48.1423 1.5955C48.3922 1.60066 48.6428 1.6054 48.8934 1.59212C49.208 1.57987 49.3183 1.69413 49.3061 2.00425C49.3008 2.19133 49.3023 2.37991 49.3038 2.5687C49.3058 2.82053 49.3078 3.07274 49.2938 3.32228C49.2693 3.63648 49.396 3.73442 49.7065 3.72218C50.1437 3.69769 50.5891 3.69769 51.0263 3.72218C51.3245 3.73442 51.4103 3.60792 51.3981 3.33452C51.3932 3.16932 51.3961 3.00478 51.3991 2.84116C51.4035 2.59657 51.4078 2.35404 51.3858 2.11443C51.349 1.65332 51.5452 1.55539 51.9578 1.57987C52.1939 1.59388 52.4287 1.59186 52.6613 1.58986C52.8353 1.58836 53.0082 1.58688 53.1795 1.59212C53.4533 1.60436 53.5391 1.50642 53.5268 1.24527C53.5207 1.01676 53.5207 0.78724 53.5207 0.557206C53.5207 0.553227 53.5207 0.549247 53.5207 0.545267ZM43.9258 3.68915C43.9276 3.92607 43.9286 4.16316 43.9154 4.39789C43.8909 4.7121 44.0176 4.81003 44.3281 4.79779C44.5564 4.78501 44.7868 4.7789 45.0172 4.77946C45.0145 4.96462 45.0151 5.18045 45.0241 5.43194C45.0363 5.71758 44.9137 5.81959 44.6359 5.80327C44.4645 5.79803 44.2917 5.79952 44.1177 5.80101C43.885 5.80302 43.6503 5.80503 43.4142 5.79103C43.0138 5.76654 42.8544 5.88896 42.879 6.31334C42.9052 6.64294 42.9002 6.97254 42.8952 7.30065C42.8932 7.43156 42.8912 7.56223 42.8912 7.69258V9.0106C42.8912 9.31816 42.8899 9.62526 42.8885 9.93221C42.8858 10.5457 42.883 11.1585 42.8912 11.7732C42.8912 12.0588 42.8177 12.173 42.5194 12.1445C42.0577 12.12 41.596 12.12 41.1384 12.1445C40.8278 12.1567 40.7788 12.0343 40.7788 11.7568C40.7911 9.90425 40.7911 8.03534 40.7788 6.18276C40.7788 5.8604 40.8769 5.74614 41.1915 5.77063C41.3178 5.77953 41.4447 5.78196 41.5717 5.78439C41.7939 5.78864 42.0165 5.79289 42.2375 5.83183C42.7114 5.91753 42.8871 5.70942 42.8994 5.29728C42.9116 4.8729 42.9116 4.4526 42.8994 4.02822C42.8871 3.75482 42.9852 3.65689 43.2467 3.68137H43.357C43.5728 3.68877 43.7613 3.69025 43.9258 3.68915ZM40.8167 0.566669C40.4056 0.567179 39.9939 0.568063 39.582 0.568948C38.3153 0.57167 37.0463 0.574397 35.7845 0.566232C35.523 0.566232 35.4249 0.651924 35.4372 0.913081C35.4424 1.10016 35.4409 1.28873 35.4394 1.47752C35.4374 1.72935 35.4354 1.98156 35.4494 2.23111C35.4617 2.55347 35.3759 2.70445 35.0245 2.67997C34.8453 2.66867 34.667 2.67302 34.4888 2.67736C34.2809 2.68243 34.0731 2.6875 33.8641 2.66773C33.4637 2.631 33.2921 2.72894 33.3289 3.16556C33.3487 3.37428 33.3436 3.58181 33.3385 3.78944C33.3342 3.96744 33.3298 4.14551 33.3411 4.32444C33.3656 4.67129 33.2798 4.83451 32.8917 4.81003C32.6827 4.79026 32.4749 4.79533 32.267 4.8004C32.0887 4.80474 31.9104 4.80909 31.7313 4.79779C31.3308 4.77331 31.1838 4.89572 31.196 5.3201C31.2144 6.24435 31.2121 7.1686 31.2098 8.09285C31.209 8.40093 31.2083 8.70902 31.2083 9.0171V11.9918C31.2083 13.2609 31.2083 13.2609 32.5035 13.2609C33.337 13.2609 33.337 13.2609 33.3248 14.1056C33.3248 15.3746 33.3248 15.3746 34.5587 15.3746C34.6097 15.3746 34.6603 15.376 34.7102 15.3774C34.8082 15.3801 34.9039 15.3828 34.9959 15.3746C35.3432 15.3379 35.4331 15.4848 35.4331 15.8235C35.4331 15.9818 35.4122 16.158 35.3912 16.3346C35.3398 16.7681 35.288 17.2049 35.5434 17.3904C35.8344 17.6044 36.3406 17.551 36.8231 17.5C36.9571 17.4858 37.0893 17.4719 37.2146 17.4639C37.4883 17.4394 37.5373 17.5251 37.5373 17.7373V18.8431C37.5373 19.2327 37.5373 19.4255 37.6337 19.5209C37.7281 19.6144 37.9151 19.6144 38.2851 19.6144C39.6661 19.6144 39.6661 19.6144 39.6538 21.0099C39.6476 21.384 39.6159 21.5676 39.6932 21.6576C39.7677 21.7444 39.9433 21.7444 40.3403 21.7444C41.7622 21.7444 41.7867 21.7567 41.7622 23.1767C41.7499 23.7235 41.8847 23.9234 42.4609 23.8745C42.5476 23.8655 42.6397 23.8527 42.734 23.8396C43.1546 23.7812 43.6183 23.7168 43.8419 23.9602C44.044 24.1725 43.9816 24.6638 43.9285 25.0823C43.9193 25.1544 43.9104 25.2244 43.9032 25.2904C43.8419 25.8495 44.0135 26.0494 44.5896 25.976C44.7624 25.9524 44.9587 25.9675 45.1505 25.9822C45.4576 26.0058 45.7531 26.0284 45.9216 25.8903C46.1651 25.684 46.111 25.278 46.0592 24.8896C46.0423 24.7631 46.0257 24.6385 46.0197 24.5233C45.9952 24.001 46.13 23.801 46.6939 23.85C46.7548 23.8566 46.8185 23.8645 46.8838 23.8725C47.2995 23.9237 47.7787 23.9828 48.0259 23.7888C48.2913 23.5798 48.2321 23.1658 48.1767 22.7782C48.1757 22.7707 48.1746 22.7631 48.1735 22.7556C48.153 22.7584 48.1326 22.7612 48.1124 22.764C48.0181 22.7771 47.926 22.7899 47.8392 22.7989C47.2631 22.8478 47.1283 22.6479 47.1406 22.1011C47.1651 20.681 47.1406 20.6688 45.7187 20.6688C45.3217 20.6688 45.1461 20.6688 45.0716 20.582C44.9943 20.4919 45.026 20.3084 45.0322 19.9343C45.0445 18.5387 45.0445 18.5387 43.6635 18.5387C43.2934 18.5387 43.1065 18.5387 43.0121 18.4453C42.9157 18.3499 42.9157 18.1571 42.9157 17.7675V16.6617C42.9157 16.4495 42.8667 16.3638 42.5929 16.3883C42.4677 16.3963 42.3355 16.4102 42.2015 16.4244C41.719 16.4753 41.2128 16.5288 40.9218 16.3148C40.6664 16.1293 40.7182 15.6925 40.7696 15.259C40.7906 15.0823 40.8115 14.9062 40.8115 14.7479C40.8115 14.4092 40.7216 14.2623 40.3743 14.299C40.2823 14.3071 40.1866 14.3045 40.0886 14.3018C40.0387 14.3004 39.9881 14.299 39.9371 14.299C38.7032 14.299 38.7032 14.299 38.7032 13.03C38.7154 12.1853 38.7154 12.1853 37.8819 12.1853C37.7428 12.1853 37.6186 12.1853 37.5077 12.1837C37.5083 12.4052 37.5099 12.6269 37.5128 12.8488C37.5128 13.1344 37.4393 13.2487 37.141 13.2201C36.6793 13.1956 36.2176 13.1956 35.76 13.2201C35.4494 13.2323 35.4004 13.1099 35.4004 12.8324C35.4127 10.9799 35.4127 9.11096 35.4004 7.25838C35.4004 6.93601 35.4985 6.82176 35.8131 6.84624C35.9394 6.85515 36.0663 6.85757 36.1934 6.86C36.3251 6.86252 36.457 6.86504 36.5885 6.87479C36.5907 5.99803 36.5918 5.12126 36.5744 4.24449C36.5621 3.82011 36.7092 3.69769 37.1097 3.72218C37.2888 3.73348 37.4671 3.72913 37.6454 3.72478C37.8533 3.71971 38.0611 3.71464 38.2701 3.73442C38.6582 3.7589 38.744 3.59568 38.7195 3.24883C38.7082 3.06989 38.7125 2.89182 38.7169 2.71382C38.722 2.5062 38.727 2.29866 38.7072 2.08995C38.6705 1.65332 38.8421 1.55539 39.2425 1.59212C39.4515 1.61189 39.6593 1.60682 39.8672 1.60175C40.0454 1.5974 40.2237 1.59306 40.4029 1.60436C40.7543 1.62884 40.8401 1.47786 40.8278 1.15549C40.8169 0.960364 40.8157 0.763603 40.8167 0.566669Z" fill="#B6201C"/>
</g>
<g clip-path="url(#clip2_91_23)">
<rect x="65.9761" y="3.76904" width="6.09562" height="9.68128" fill="white"/>
<path d="M89.8402 4.8794C89.5052 4.53255 88.831 4.80595 88.2957 4.75698C88.2835 4.75698 88.259 4.75698 88.2467 4.75698C87.9239 4.79371 87.7727 4.68353 87.785 4.3326C87.8095 3.89598 87.7727 3.4512 87.7973 3.01458C87.8095 2.7167 87.6992 2.62692 87.4091 2.64324C86.9474 2.65549 86.4857 2.631 86.0281 2.65549C85.7666 2.66773 85.6685 2.56979 85.6808 2.30864C85.693 1.84753 85.6808 1.38643 85.693 0.929403C85.7053 0.656004 85.6072 0.541748 85.3212 0.541748C83.4417 0.55399 81.5581 0.55399 79.6908 0.541748C79.3803 0.541748 79.319 0.664165 79.3313 0.941645C79.3435 1.40275 79.3313 1.86385 79.3435 2.32088C79.3558 2.58204 79.27 2.67997 78.9962 2.66773C78.5958 2.65549 78.1872 2.67997 77.7745 2.65549C77.3618 2.631 77.1657 2.72894 77.2025 3.19004C77.2393 3.58994 77.2025 3.998 77.2148 4.41013C77.227 4.68353 77.1412 4.81003 76.8429 4.79779C76.4057 4.77331 75.9604 4.77331 75.5232 4.79779C75.2127 4.81003 75.086 4.7121 75.1105 4.39789C75.135 3.96127 75.1105 3.51649 75.1228 3.07987C75.135 2.76974 75.0247 2.65549 74.7101 2.66773C74.2484 2.69221 73.7867 2.65549 73.3291 2.66773C73.0676 2.67997 72.9695 2.58204 72.9695 2.32088C72.9818 1.84753 72.9695 1.36194 72.9818 0.888597C72.9818 0.664165 72.9082 0.55399 72.6712 0.566232C70.7794 0.566232 68.8713 0.578473 66.9796 0.566232C66.7181 0.566232 66.62 0.651924 66.6323 0.913081C66.6445 1.3497 66.62 1.79449 66.6445 2.23111C66.6568 2.55347 66.571 2.70445 66.2196 2.67997C65.8314 2.65549 65.4473 2.70445 65.0592 2.66773C64.6588 2.631 64.4872 2.72894 64.5239 3.16556C64.5607 3.55321 64.5117 3.93679 64.5362 4.32444C64.5607 4.67129 64.4749 4.83451 64.0867 4.81003C63.6986 4.77331 63.3145 4.82227 62.9263 4.79779C62.5259 4.77331 62.3788 4.89572 62.3911 5.3201C62.4156 6.55244 62.4033 7.78477 62.4033 9.0171C62.4033 10.0128 62.4033 11.0084 62.4033 11.9918C62.4033 13.2609 62.4033 13.2609 63.6986 13.2609C64.5321 13.2609 64.5321 13.2609 64.5198 14.1056C64.5198 15.3746 64.5198 15.3746 65.7538 15.3746C65.905 15.3746 66.0521 15.3869 66.191 15.3746C66.5383 15.3379 66.6282 15.4848 66.6282 15.8235C66.6282 16.3703 66.3789 17.1293 66.7385 17.3904C67.1103 17.6638 67.8335 17.5006 68.4096 17.4639C68.6834 17.4394 68.7324 17.5251 68.7324 17.7373C68.7324 18.1086 68.7324 18.4718 68.7324 18.8431C68.7324 19.6144 68.7324 19.6144 69.4801 19.6144C70.8612 19.6144 70.8612 19.6144 70.8489 21.0099C70.8367 21.7444 70.7263 21.7444 71.5353 21.7444C72.9572 21.7444 72.9818 21.7567 72.9572 23.1767C72.945 23.7235 73.0798 23.9234 73.6559 23.8745C74.1299 23.8255 74.7632 23.6623 75.037 23.9602C75.2739 24.2091 75.1473 24.8416 75.0983 25.2904C75.037 25.8495 75.2086 26.0494 75.7847 25.976C76.2341 25.9148 76.8429 26.1147 77.1167 25.8903C77.4395 25.6169 77.2393 24.9926 77.2148 24.5233C77.1902 24.001 77.3251 23.801 77.8889 23.85C78.3384 23.899 78.9349 24.0132 79.2209 23.7888C79.5682 23.5154 79.3599 22.8911 79.3313 22.434C79.3067 21.8872 79.4702 21.6995 80.0299 21.7363C80.4794 21.773 81.0637 21.9484 81.3619 21.6628C81.6602 21.3772 81.4478 20.7936 81.46 20.3448C81.4845 19.6225 81.4723 19.6225 82.22 19.6348C82.4447 19.6348 82.6694 19.6103 82.8819 19.647C83.4172 19.7205 83.6174 19.5491 83.5929 18.9615C83.5316 17.5169 83.5683 17.4925 85.0393 17.5292C85.5745 17.5414 85.787 17.4313 85.7257 16.8436C85.6767 16.3948 85.5132 15.8113 85.7992 15.5134C86.0853 15.2033 86.6695 15.4522 87.119 15.4154C87.168 15.4154 87.2293 15.4032 87.2824 15.4154C87.7441 15.5011 87.8299 15.2767 87.8177 14.8686C87.8054 14.3708 87.6052 13.7506 87.8912 13.4241C88.214 13.0773 88.8637 13.314 89.3622 13.314C89.8116 13.314 89.9587 13.2038 89.9464 12.7427C89.9219 10.6412 89.9464 8.54784 89.9342 6.44634C89.926 5.86282 90.1385 5.20177 89.8402 4.8794ZM70.8407 6.50755C70.853 6.79319 70.7304 6.8952 70.4526 6.87888C70.0522 6.86664 69.6436 6.89112 69.2309 6.86664C68.8305 6.84216 68.6711 6.96457 68.6956 7.38895C68.7324 7.85006 68.7079 8.31116 68.7079 8.76819C68.7079 9.20481 68.7079 9.64959 68.7079 10.0862C68.7079 11.0084 68.6956 11.9266 68.7079 12.8488C68.7079 13.1344 68.6343 13.2487 68.3361 13.2201C67.8744 13.1956 67.4127 13.1956 66.955 13.2201C66.6445 13.2323 66.5955 13.1099 66.5955 12.8324C66.6077 10.9799 66.6077 9.11096 66.5955 7.25838C66.5955 6.93601 66.6935 6.82175 67.0082 6.84624C67.3555 6.87072 67.7068 6.84624 68.0541 6.90745C68.5281 6.99314 68.7038 6.78503 68.7161 6.37289C68.7283 5.94851 68.7283 5.52821 68.7161 5.10383C68.7038 4.83043 68.8019 4.7325 69.0634 4.75698C69.1001 4.75698 69.1369 4.75698 69.1737 4.75698C71.3147 4.83043 70.7631 4.32036 70.8407 6.50755Z" fill="#E53935"/>
<path fill-rule="evenodd" clip-rule="evenodd" d="M84.7159 0.545267C83.0375 0.553849 81.3577 0.552676 79.6908 0.541748C79.3803 0.541748 79.319 0.664165 79.3313 0.941645C79.3371 1.15974 79.3374 1.37784 79.3374 1.5955C79.5874 1.60066 79.838 1.60541 80.0886 1.59212C80.4032 1.57987 80.5136 1.69413 80.5013 2.00425C80.4961 2.19133 80.4976 2.37991 80.4991 2.5687C80.5011 2.82053 80.5031 3.07274 80.489 3.32228C80.4645 3.63648 80.5912 3.73442 80.9017 3.72218C81.3389 3.69769 81.7843 3.69769 82.2215 3.72218C82.5197 3.73442 82.6056 3.60792 82.5933 3.33452C82.5884 3.16932 82.5913 3.00478 82.5943 2.84116C82.5987 2.59657 82.6031 2.35404 82.581 2.11443C82.5443 1.65332 82.7404 1.55539 83.1531 1.57987C83.3891 1.59388 83.6239 1.59186 83.8565 1.58986C84.0306 1.58836 84.2034 1.58688 84.3747 1.59212C84.6485 1.60436 84.7343 1.50642 84.722 1.24527C84.7159 1.01676 84.7159 0.78724 84.7159 0.557206C84.7159 0.553227 84.7159 0.549247 84.7159 0.545267ZM75.1209 3.68916C75.1227 3.92607 75.1237 4.16316 75.1105 4.39789C75.086 4.7121 75.2127 4.81003 75.5232 4.79779C75.7515 4.785 75.982 4.7789 76.2124 4.77946C76.2097 4.96462 76.2104 5.18045 76.2193 5.43194C76.2315 5.71758 76.109 5.81959 75.8311 5.80327C75.6598 5.79803 75.4869 5.79952 75.3129 5.80101C75.0803 5.80302 74.8455 5.80503 74.6094 5.79103C74.209 5.76654 74.0497 5.88896 74.0742 6.31334C74.1005 6.64294 74.0954 6.97254 74.0904 7.30065C74.0884 7.43156 74.0864 7.56223 74.0864 7.69258V9.0106C74.0864 9.31816 74.0851 9.62526 74.0837 9.93221C74.081 10.5457 74.0783 11.1585 74.0864 11.7732C74.0864 12.0588 74.0129 12.173 73.7146 12.1445C73.2529 12.12 72.7912 12.12 72.3336 12.1445C72.0231 12.1567 71.974 12.0343 71.974 11.7568C71.9863 9.90425 71.9863 8.03534 71.974 6.18276C71.974 5.8604 72.0721 5.74614 72.3867 5.77063C72.513 5.77953 72.6399 5.78196 72.767 5.78439C72.9891 5.78864 73.2117 5.79289 73.4327 5.83183C73.9067 5.91753 74.0823 5.70942 74.0946 5.29728C74.1069 4.8729 74.1069 4.4526 74.0946 4.02822C74.0823 3.75482 74.1804 3.65689 74.4419 3.68137H74.5522C74.768 3.68877 74.9564 3.69025 75.1209 3.68916ZM72.0119 0.566669C71.6008 0.567178 71.189 0.568063 70.777 0.568948C69.5104 0.57167 68.2413 0.574397 66.9796 0.566232C66.7181 0.566232 66.62 0.651924 66.6323 0.913081C66.6375 1.10016 66.636 1.28873 66.6345 1.47752C66.6325 1.72935 66.6305 1.98156 66.6445 2.23111C66.6568 2.55347 66.571 2.70445 66.2196 2.67997C66.0404 2.66867 65.8621 2.67302 65.6839 2.67736C65.476 2.68243 65.2682 2.6875 65.0592 2.66773C64.6588 2.631 64.4872 2.72894 64.5239 3.16556C64.5437 3.37428 64.5387 3.58181 64.5336 3.78944C64.5292 3.96744 64.5249 4.14551 64.5362 4.32444C64.5607 4.67129 64.4749 4.83451 64.0867 4.81003C63.8777 4.79026 63.6699 4.79533 63.462 4.8004C63.2838 4.80474 63.1055 4.80909 62.9263 4.79779C62.5259 4.77331 62.3788 4.89572 62.3911 5.3201C62.4095 6.24435 62.4072 7.1686 62.4049 8.09285C62.4041 8.40093 62.4033 8.70902 62.4033 9.0171V11.9918C62.4033 13.2609 62.4033 13.2609 63.6986 13.2609C64.5321 13.2609 64.5321 13.2609 64.5198 14.1056C64.5198 15.3746 64.5198 15.3746 65.7538 15.3746C65.8048 15.3746 65.8553 15.376 65.9053 15.3774C66.0033 15.3801 66.0989 15.3828 66.191 15.3746C66.5383 15.3379 66.6282 15.4848 66.6282 15.8235C66.6282 15.9818 66.6073 16.158 66.5863 16.3346C66.5349 16.7681 66.483 17.2049 66.7385 17.3904C67.0295 17.6044 67.5357 17.551 68.0182 17.5C68.1522 17.4858 68.2844 17.4719 68.4096 17.4639C68.6834 17.4394 68.7324 17.5251 68.7324 17.7373V18.8431C68.7324 19.2327 68.7324 19.4255 68.8288 19.5209C68.9232 19.6144 69.1101 19.6144 69.4801 19.6144C70.8612 19.6144 70.8612 19.6144 70.8489 21.0099C70.8427 21.384 70.811 21.5676 70.8883 21.6576C70.9627 21.7444 71.1384 21.7444 71.5353 21.7444C72.9572 21.7444 72.9818 21.7567 72.9572 23.1767C72.945 23.7235 73.0798 23.9234 73.6559 23.8745C73.7427 23.8655 73.8348 23.8527 73.929 23.8396C74.3497 23.7812 74.8133 23.7168 75.037 23.9602C75.2391 24.1725 75.1767 24.6638 75.1235 25.0823C75.1144 25.1544 75.1055 25.2244 75.0983 25.2904C75.037 25.8495 75.2086 26.0494 75.7847 25.976C75.9574 25.9524 76.1538 25.9675 76.3455 25.9822C76.6527 26.0058 76.9482 26.0284 77.1167 25.8903C77.3602 25.684 77.3061 25.278 77.2543 24.8896C77.2374 24.7631 77.2208 24.6385 77.2148 24.5233C77.1902 24.001 77.3251 23.801 77.8889 23.85C77.9499 23.8566 78.0136 23.8645 78.0789 23.8725C78.4946 23.9237 78.9737 23.9828 79.2209 23.7888C79.4864 23.5798 79.4272 23.1658 79.3718 22.7782C79.3707 22.7707 79.3696 22.7631 79.3686 22.7556C79.3482 22.7584 79.3278 22.7612 79.3076 22.764C79.2133 22.7771 79.1212 22.7899 79.0345 22.7989C78.4584 22.8478 78.3235 22.6479 78.3358 22.1011C78.3603 20.681 78.3358 20.6688 76.9139 20.6688C76.5169 20.6688 76.3413 20.6688 76.2668 20.582C76.1895 20.4919 76.2212 20.3084 76.2274 19.9343C76.2397 18.5387 76.2397 18.5387 74.8587 18.5387C74.4887 18.5387 74.3018 18.5387 74.2073 18.4453C74.1109 18.3499 74.1109 18.1571 74.1109 17.7675V16.6617C74.1109 16.4495 74.0619 16.3638 73.7882 16.3883C73.6629 16.3963 73.5308 16.4102 73.3967 16.4244C72.9142 16.4753 72.408 16.5288 72.117 16.3148C71.8616 16.1293 71.9134 15.6925 71.9648 15.259C71.9858 15.0823 72.0067 14.9062 72.0067 14.7479C72.0067 14.4092 71.9168 14.2623 71.5695 14.299C71.4775 14.3071 71.3818 14.3045 71.2838 14.3018C71.2339 14.3004 71.1833 14.299 71.1323 14.299C69.8984 14.299 69.8984 14.299 69.8984 13.03C69.9106 12.1853 69.9106 12.1853 69.0771 12.1853C68.9379 12.1853 68.8137 12.1853 68.7028 12.1837C68.7034 12.4052 68.7049 12.6269 68.7079 12.8488C68.7079 13.1344 68.6343 13.2487 68.3361 13.2201C67.8744 13.1956 67.4127 13.1956 66.955 13.2201C66.6445 13.2323 66.5955 13.1099 66.5955 12.8324C66.6077 10.9799 66.6077 9.11096 66.5955 7.25838C66.5955 6.93601 66.6935 6.82176 67.0082 6.84624C67.1345 6.85515 67.2614 6.85757 67.3884 6.86C67.5202 6.86252 67.6521 6.86504 67.7838 6.8748C67.7859 5.99803 67.7871 5.12126 67.7696 4.24449C67.7574 3.82011 67.9045 3.69769 68.3049 3.72218C68.484 3.73348 68.6623 3.72913 68.8406 3.72478C69.0485 3.71971 69.2563 3.71464 69.4653 3.73442C69.8534 3.7589 69.9392 3.59568 69.9147 3.24883C69.9034 3.06989 69.9078 2.89182 69.9121 2.71382C69.9172 2.5062 69.9223 2.29866 69.9025 2.08995C69.8657 1.65332 70.0373 1.55539 70.4377 1.59212C70.6467 1.61189 70.8545 1.60682 71.0624 1.60175C71.2406 1.5974 71.4189 1.59306 71.5981 1.60436C71.9495 1.62884 72.0353 1.47786 72.0231 1.15549C72.0121 0.960364 72.0109 0.763603 72.0119 0.566669Z" fill="#B6201C"/>
</g>
<defs>
<clipPath id="clip0_91_23">
<rect width="27.6096" height="25.4582" fill="white" transform="translate(0 0.541748)"/>
</clipPath>
<clipPath id="clip1_91_23">
<rect width="27.6096" height="25.4582" fill="white" transform="translate(31.1953 0.541748)"/>
</clipPath>
<clipPath id="clip2_91_23">
<rect width="27.6096" height="25.4582" fill="white" transform="translate(62.3904 0.541748)"/>
</clipPath>
</defs>
</svg>
