<svg width="24" height="24" viewBox="0 0 24 24" fill="none" xmlns="http://www.w3.org/2000/svg">
<path d="M21 6.00016H16V4.33016C15.9765 3.68998 15.7002 3.08522 15.2316 2.64845C14.7629 2.21168 14.1402 1.97855 13.5 2.00016H10.5C9.85976 1.97855 9.23706 2.21168 8.76843 2.64845C8.2998 3.08522 8.02346 3.68998 8 4.33016V6.00016H3C2.73478 6.00016 2.48043 6.10552 2.29289 6.29305C2.10536 6.48059 2 6.73494 2 7.00016C2 7.26537 2.10536 7.51973 2.29289 7.70727C2.48043 7.8948 2.73478 8.00016 3 8.00016H4V19.0002C4 19.7958 4.31607 20.5589 4.87868 21.1215C5.44129 21.6841 6.20435 22.0002 7 22.0002H17C17.7957 22.0002 18.5587 21.6841 19.1213 21.1215C19.6839 20.5589 20 19.7958 20 19.0002V8.00016H21C21.2652 8.00016 21.5196 7.8948 21.7071 7.70727C21.8946 7.51973 22 7.26537 22 7.00016C22 6.73494 21.8946 6.48059 21.7071 6.29305C21.5196 6.10552 21.2652 6.00016 21 6.00016ZM10 16.0002C10 16.2654 9.89464 16.5197 9.70711 16.7073C9.51957 16.8948 9.26522 17.0002 9 17.0002C8.73479 17.0002 8.48043 16.8948 8.29289 16.7073C8.10536 16.5197 8 16.2654 8 16.0002V12.0002C8 11.7349 8.10536 11.4806 8.29289 11.2931C8.48043 11.1055 8.73479 11.0002 9 11.0002C9.26522 11.0002 9.51957 11.1055 9.70711 11.2931C9.89464 11.4806 10 11.7349 10 12.0002V16.0002ZM10 4.33016C10 4.17016 10.21 4.00016 10.5 4.00016H13.5C13.79 4.00016 14 4.17016 14 4.33016V6.00016H10V4.33016ZM16 16.0002C16 16.2654 15.8946 16.5197 15.7071 16.7073C15.5196 16.8948 15.2652 17.0002 15 17.0002C14.7348 17.0002 14.4804 16.8948 14.2929 16.7073C14.1054 16.5197 14 16.2654 14 16.0002V12.0002C14 11.7349 14.1054 11.4806 14.2929 11.2931C14.4804 11.1055 14.7348 11.0002 15 11.0002C15.2652 11.0002 15.5196 11.1055 15.7071 11.2931C15.8946 11.4806 16 11.7349 16 12.0002V16.0002Z" fill="white"/>
</svg>
